<!-- Generated by IcoMoon.io -->
<svg version="1.1" xmlns="http://www.w3.org/2000/svg" width="1045" height="1024" viewBox="0 0 1045 1024">
<title></title>
<g id="icomoon-ignore">
</g>
<path fill="#eb6ec8" d="M512 0c70.692 0 128 57.308 128 128v768c0 70.692-57.308 128-128 128s-128-57.308-128-128v-768c0-70.692 57.308-128 128-128z"></path>
<path fill="#eb6ec8" d="M1025.819 511.050v0c-0.762 76.305-63.237 137.545-139.542 136.783l-747.624-7.463c-76.305-0.762-137.545-63.237-136.783-139.542v0c0.762-76.305 63.237-137.545 139.542-136.783l747.624 7.463c76.305 0.762 137.545 63.237 136.783 139.542z"></path>
</svg>
