<!-- Generated by IcoMoon.io -->
<svg version="1.1" xmlns="http://www.w3.org/2000/svg" width="1063" height="1024" viewBox="0 0 1063 1024">
<title></title>
<g id="icomoon-ignore">
</g>
<path fill="#f4d177" d="M743.591 443.077c0 107.958-87.545 195.475-195.536 195.475s-195.536-87.517-195.536-195.475c0-107.958 87.545-195.475 195.536-195.475s195.536 87.517 195.536 195.475z"></path>
<path fill="#f4d177" d="M514.532 36.369c15.746-18.919 44.796-18.919 60.542 0l54.272 65.205c21.354 25.657 3.109 64.58-30.271 64.58h-108.544c-33.38 0-51.625-38.923-30.271-64.58l54.272-65.205z"></path>
<path fill="#f4d177" d="M811.878 124.055c24.229-4.375 46.49 14.298 46.387 38.913l-0.351 84.828c-0.138 33.373-39.138 51.456-64.711 30.005l-83.153-69.752c-25.572-21.451-14.531-62.986 18.322-68.918l83.505-15.076z"></path>
<path fill="#f4d177" d="M227.361 162.969c-0.102-24.615 22.158-43.288 46.389-38.913l83.503 15.076c32.853 5.931 43.894 47.467 18.322 68.919l-83.153 69.75c-25.572 21.453-64.573 3.369-64.711-30.005l-0.351-84.828z"></path>
<path fill="#f4d177" d="M575.065 849.784c-15.748 18.918-44.796 18.918-60.542 0l-54.272-65.203c-21.354-25.657-3.109-64.581 30.271-64.581h108.542c33.38 0 51.625 38.924 30.271 64.581l-54.27 65.203z"></path>
<path fill="#f4d177" d="M858.254 720.203c0.102 24.613-22.158 43.288-46.387 38.912l-83.505-15.076c-32.853-5.931-43.894-47.466-18.322-68.917l83.153-69.752c25.572-21.453 64.573-3.367 64.711 30.005l0.351 84.829z"></path>
<path fill="#f4d177" d="M968.93 413.050c18.532 15.728 18.532 44.325 0 60.054l-65.957 55.983c-25.586 21.717-64.87 3.533-64.87-30.027v-111.968c0-33.558 39.284-51.742 64.87-30.027l65.957 55.985z"></path>
<path fill="#f4d177" d="M111.312 469.098c-17.39-15.648-17.39-42.912 0-58.559l67.936-61.123c25.347-22.804 65.726-4.815 65.726 29.28v122.246c0 34.093-40.379 52.082-65.726 29.279l-67.936-61.123z"></path>
<path fill="#f4d177" d="M273.757 765.631c-24.229 4.374-46.49-14.299-46.389-38.914l0.352-84.829c0.138-33.373 39.138-51.456 64.711-30.005l83.153 69.752c25.572 21.451 14.531 62.988-18.322 68.919l-83.505 15.076z"></path>
</svg>
